# https://github.com/mikedh/trimesh
mtllib material.mtl

o Icosphere
usemtl material_0
v -0.04004200 0.18345700 0.03179800
v -0.04004200 0.18345700 0.03179800
v -0.04004200 0.18345700 0.03179800
v -0.04004200 0.18345700 0.03179800
v -0.04004200 0.18345700 0.03179800
v -0.03642400 0.18622100 0.03442700
v -0.04142400 0.18622100 0.03605100
v -0.04142400 0.18622100 0.03605100
v -0.04451400 0.18622100 0.03179800
v -0.04142400 0.18622100 0.02754500
v -0.03642400 0.18622100 0.02917000
v -0.03866000 0.19069300 0.03605100
v -0.04366000 0.19069300 0.03442700
v -0.04366000 0.19069300 0.03442700
v -0.04366000 0.19069300 0.02917000
v -0.03866000 0.19069300 0.02754500
v -0.03557000 0.19069300 0.03179800
v -0.04004200 0.19345700 0.03179800
v -0.04004200 0.19345700 0.03179800
v -0.04004200 0.19345700 0.03179800
v -0.04004200 0.19345700 0.03179800
v -0.04004200 0.19345700 0.03179800
vn 0.18753181 -0.79464990 0.57737627
vn 0.60707503 -0.79464452 0.00000000
vn -0.49114023 -0.79463789 0.35683596
vn -0.49114023 -0.79463789 -0.35683596
vn 0.18765183 -0.79461140 -0.57739025
vn 0.72358587 -0.44718900 0.52578084
vn 0.07272881 -0.30820143 0.94853698
vn -0.68818459 -0.52574161 0.49999774
vn -0.89442811 -0.44721175 -0.00002056
vn -0.27639023 -0.44718582 -0.85066637
vn 0.72363220 -0.44721763 -0.52569271
vn 0.27641096 0.44721935 0.85064201
vn -0.92460496 0.30816239 0.22392322
vn -0.26278494 0.52569458 0.80906692
vn -0.72363220 0.44721763 -0.52569271
vn 0.27639023 0.44718582 -0.85066637
vn 0.89442811 0.44721175 -0.00002056
vn 0.49114023 0.79463789 0.35683596
vn -0.60707503 0.79464452 0.00000000
vn -0.18753181 0.79464990 0.57737627
vn -0.18765183 0.79461140 -0.57739025
vn 0.49114023 0.79463789 -0.35683596
vt 0.18181900 0.00000000
vt 0.36363700 0.00000000
vt 0.90909100 0.00000000
vt 0.72727300 0.00000000
vt 0.54545500 0.00000000
vt 0.27272800 0.15746100
vt 0.09091000 0.15746100
vt 1.00000000 0.15746100
vt 0.81818200 0.15746100
vt 0.63636400 0.15746100
vt 0.45454600 0.15746100
vt 0.18181900 0.31492100
vt 0.90909100 0.31492100
vt 0.00000000 0.31492100
vt 0.72727300 0.31492100
vt 0.54545500 0.31492100
vt 0.36363700 0.31492100
vt 0.27272800 0.47238200
vt 0.81818200 0.47238200
vt 0.09091000 0.47238200
vt 0.63636400 0.47238200
vt 0.45454600 0.47238200
f 1/1/1 6/6/6 7/7/7
f 6/6/6 2/2/2 11/11/11
f 3/3/3 8/8/8 9/9/9
f 4/4/4 9/9/9 10/10/10
f 5/5/5 10/10/10 11/11/11
f 6/6/6 11/11/11 17/17/17
f 7/7/7 6/6/6 12/12/12
f 9/9/9 8/8/8 13/13/13
f 10/10/10 9/9/9 15/15/15
f 11/11/11 10/10/10 16/16/16
f 6/6/6 17/17/17 12/12/12
f 7/7/7 12/12/12 14/14/14
f 9/9/9 13/13/13 15/15/15
f 10/10/10 15/15/15 16/16/16
f 11/11/11 16/16/16 17/17/17
f 12/12/12 17/17/17 18/18/18
f 14/14/14 12/12/12 20/20/20
f 15/15/15 13/13/13 19/19/19
f 16/16/16 15/15/15 21/21/21
f 17/17/17 16/16/16 22/22/22

