# Blender 4.4.3
# www.blender.org
o Cube
v 4.803747 -5.000000 1.390688
v 4.829629 -5.000000 1.294095
v -4.855511 -5.000000 -1.197503
v -4.829629 -5.000000 -1.294095
v 4.803747 5.000000 1.390688
v 4.829629 5.000000 1.294095
v -4.855511 5.000000 -1.197503
v -4.829629 5.000000 -1.294095
vn -0.2588 -0.0000 0.9659
vn -0.9659 -0.0000 -0.2588
vn -0.0000 1.0000 -0.0000
vn 0.2588 -0.0000 -0.9659
vn -0.0000 -1.0000 -0.0000
vn 0.9659 -0.0000 0.2588
s 0
f 5//1 3//1 1//1
f 3//2 8//2 4//2
f 7//3 6//3 8//3
f 2//4 8//4 6//4
f 1//5 4//5 2//5
f 5//6 2//6 6//6
f 5//1 7//1 3//1
f 3//2 7//2 8//2
f 7//3 5//3 6//3
f 2//4 4//4 8//4
f 1//5 3//5 4//5
f 5//6 1//6 2//6
